<svg width="32" height="32" viewBox="0 0 32 32" fill="none" xmlns="http://www.w3.org/2000/svg">
<circle cx="16" cy="16" r="14.5" fill="black" stroke="url(#paint0_linear_294_93)" stroke-width="3"/>
<path d="M16.2822 24.2578C11.8887 24.2578 8.67676 21.0889 8.67676 16.0078C8.67676 10.8945 11.8779 7.73633 16.2822 7.73633C20.0312 7.73633 22.8242 10.0566 23.3291 13.6338H19.9883C19.6123 11.7432 18.2266 10.6582 16.3252 10.6582C13.6074 10.6582 12.0068 12.7314 12.0068 16.0078C12.0068 19.2627 13.5967 21.3359 16.3252 21.3359C18.2158 21.3359 19.5908 20.2617 19.999 18.3818H23.3291C22.8242 21.9482 20.0312 24.2578 16.2822 24.2578Z" fill="url(#paint1_linear_294_93)"/>
<defs>
<linearGradient id="paint0_linear_294_93" x1="4.69333" y1="4.69333" x2="27.3067" y2="27.3067" gradientUnits="userSpaceOnUse">
<stop stop-color="#FFC700"/>
<stop offset="0.33" stop-color="#FF3600"/>
<stop offset="0.67" stop-color="#B200F0"/>
<stop offset="1" stop-color="#00B2FF"/>
</linearGradient>
<linearGradient id="paint1_linear_294_93" x1="4.48" y1="4.6" x2="27.0933" y2="27.2133" gradientUnits="userSpaceOnUse">
<stop stop-color="#FFC700"/>
<stop offset="0.33" stop-color="#FF3600"/>
<stop offset="0.67" stop-color="#B200F0"/>
<stop offset="1" stop-color="#00B2FF"/>
</linearGradient>
</defs>
</svg>
