<?xml version="1.0" encoding="utf-8"?>
<!-- Generator: Adobe Illustrator 24.0.2, SVG Export Plug-In . SVG Version: 6.00 Build 0)  -->
<svg version="1.1" id="Capa_1" xmlns="http://www.w3.org/2000/svg" xmlns:xlink="http://www.w3.org/1999/xlink" x="0px" y="0px"
	 viewBox="0 0 965 1024" style="enable-background:new 0 0 965 1024;" xml:space="preserve">
<style type="text/css">
	.st0{fill:#36697F;}
	.st1{fill:#37A5CC;}
	.st2{fill:#7DC6DD;}
	.st3{fill:#FFFFFF;}
</style>
<g id="b82a632e-4888-4760-a119-707431a1add2">
	<path id="aafa4d6f-b327-4d41-89f7-193601ba9ff9" class="st0" d="M156,0.2L886,160h79v864H137c-28.7,0-52-23.3-52-52l0,0V754.3
		L154.5,2.4L156,0.2z"/>
	<path id="e62b8b6d-a2d5-42f5-95e3-82be612e200d" class="st1" d="M156,0h686c28.7,0,52,23.3,52,52v668l0,0H156l0,0V0L156,0z"/>
	<polygon id="b696bc37-b8aa-4354-bbfa-d3faf3be85c0" class="st2" points="0,814 156,720 156,0 0,94 	"/>
</g>
<g id="e31ea7dd-e699-418c-8488-ea7f2ad8fb14">
	<path class="st3" d="M730.8,161.1v399h-94.6V302.5l-66.7,257.1v0.6h-94.1l-70.7-267.9v267.9h-85.5v-399h125.4L525,481.5l84.4-319.2
		l-0.6-1.1L730.8,161.1z"/>
</g>
</svg>
