<svg width="19" height="19" viewBox="0 0 19 19" fill="none" xmlns="http://www.w3.org/2000/svg">
<path d="M14.825 18.25L8.12505 11.5C7.79172 11.6333 7.45422 11.7333 7.11255 11.8C6.77088 11.8667 6.40838 11.9 6.02505 11.9C4.40005 11.9 3.0188 11.3312 1.8813 10.1937C0.743799 9.05624 0.175049 7.67499 0.175049 6.04999C0.175049 5.47499 0.252132 4.92707 0.406299 4.40624C0.560465 3.8854 0.783382 3.39165 1.07505 2.92499L4.65005 6.49999L6.50005 4.67499L2.92505 1.09999C3.39172 0.808321 3.8813 0.581238 4.3938 0.418738C4.9063 0.256238 5.45005 0.174988 6.02505 0.174988C7.65005 0.174988 9.03547 0.747904 10.1813 1.89374C11.3271 3.03957 11.9 4.42499 11.9 6.04999C11.9 6.43332 11.8667 6.79582 11.8 7.13749C11.7334 7.47915 11.6334 7.81665 11.5 8.14999L18.25 14.85L14.825 18.25Z" fill="white"/>
</svg>
