<svg height="72" viewBox="0 0 72 72" width="72" xmlns="http://www.w3.org/2000/svg"
  xmlns:svg="http://www.w3.org/2000/svg">
  <path fill-rule="evenodd" clip-rule="evenodd"
    d="M 36.000004,0 A 36,36 0 0 0 -4e-6,36 a 36,36 0 0 0 36.000008,36 36,36 0 0 0 36,-36 36,36 0 0 0 -36,-36 z m -16.25,14.5 c 2.90025,0 5.25,2.367836 5.25,5.289062 0,2.921228 -2.34975,5.291016 -5.25,5.291016 -2.90025,0 -5.25,-2.369788 -5.25,-5.291016 0,-2.921226 2.34975,-5.289062 5.25,-5.289062 z m 27.3164,13.457031 c 6.08047,0 10.4336,3.713166 10.4336,11.392578 V 57.5 h -8.83594 V 42.451172 c 0,-4.125814 -1.56644,-6.431641 -4.83203,-6.431641 -3.55255,0 -5.40821,2.399564 -5.40821,6.431641 V 57.5 h -8.51562 V 28.833984 h 8.51562 v 3.861328 c 0,0 2.55932,-4.738281 8.64258,-4.738281 z m -31.71289,0.876953 h 8.87891 V 57.5 h -8.87891 z"
    fill="white" />
</svg>